<?xml version="1.0" encoding="iso-8859-1"?>
<!-- Generator: Adobe Illustrator 19.0.0, SVG Export Plug-In . SVG Version: 6.00 Build 0)  -->
<svg version="1.1" id="Capa_1" xmlns="http://www.w3.org/2000/svg" xmlns:xlink="http://www.w3.org/1999/xlink" x="0px" y="0px"
	 viewBox="0 0 490.667 490.667" style="enable-background:new 0 0 490.667 490.667;" xml:space="preserve">
<g>
	<g>
		<path d="M74.667,128C68.779,128,64,132.779,64,138.667V352c0,5.888,4.779,10.667,10.667,10.667S85.333,357.888,85.333,352V138.667
			C85.333,132.779,80.555,128,74.667,128z"/>
	</g>
</g>
<g>
	<g>
		<path d="M117.333,128c-5.888,0-10.667,4.779-10.667,10.667v170.667c0,5.888,4.779,10.667,10.667,10.667S128,315.221,128,309.333
			V138.667C128,132.779,123.221,128,117.333,128z"/>
	</g>
</g>
<g>
	<g>
		<path d="M160,128c-5.888,0-10.667,4.779-10.667,10.667v170.667c0,5.888,4.779,10.667,10.667,10.667s10.667-4.779,10.667-10.667
			V138.667C170.667,132.779,165.888,128,160,128z"/>
	</g>
</g>
<g>
	<g>
		<path d="M202.667,128c-5.888,0-10.667,4.779-10.667,10.667v170.667c0,5.888,4.779,10.667,10.667,10.667
			s10.667-4.779,10.667-10.667V138.667C213.333,132.779,208.555,128,202.667,128z"/>
	</g>
</g>
<g>
	<g>
		<path d="M245.333,128c-5.888,0-10.667,4.779-10.667,10.667V352c0,5.888,4.779,10.667,10.667,10.667S256,357.888,256,352V138.667
			C256,132.779,251.221,128,245.333,128z"/>
	</g>
</g>
<g>
	<g>
		<path d="M288,128c-5.888,0-10.667,4.779-10.667,10.667v170.667c0,5.888,4.779,10.667,10.667,10.667s10.667-4.779,10.667-10.667
			V138.667C298.667,132.779,293.888,128,288,128z"/>
	</g>
</g>
<g>
	<g>
		<path d="M330.667,128c-5.888,0-10.667,4.779-10.667,10.667v170.667c0,5.888,4.779,10.667,10.667,10.667
			c5.888,0,10.667-4.779,10.667-10.667V138.667C341.333,132.779,336.555,128,330.667,128z"/>
	</g>
</g>
<g>
	<g>
		<path d="M373.333,128c-5.888,0-10.667,4.779-10.667,10.667v170.667c0,5.888,4.779,10.667,10.667,10.667
			c5.888,0,10.667-4.779,10.667-10.667V138.667C384,132.779,379.221,128,373.333,128z"/>
	</g>
</g>
<g>
	<g>
		<path d="M416,128c-5.888,0-10.667,4.779-10.667,10.667V352c0,5.888,4.779,10.667,10.667,10.667s10.667-4.779,10.667-10.667
			V138.667C426.667,132.779,421.888,128,416,128z"/>
	</g>
</g>
<g>
	<g>
		<path d="M124.8,344.32c-4.053-3.84-10.88-3.84-15.147,0.213c-1.92,1.92-2.987,4.693-2.987,7.467s1.067,5.547,3.2,7.467
			c1.92,2.133,4.693,3.2,7.467,3.2s5.547-1.067,7.467-3.2c2.133-1.92,3.2-4.693,3.2-7.467C128,349.227,126.933,346.453,124.8,344.32
			z"/>
	</g>
</g>
<g>
	<g>
		<path d="M167.467,344.533c-3.84-4.053-11.093-4.053-14.933,0c-2.133,1.92-3.2,4.693-3.2,7.467s1.067,5.547,3.2,7.68
			c2.133,1.92,4.693,2.987,7.467,2.987c2.773,0,5.547-1.067,7.68-3.2c1.92-1.92,2.987-4.693,2.987-7.467
			C170.667,349.227,169.6,346.667,167.467,344.533z"/>
	</g>
</g>
<g>
	<g>
		<path d="M210.133,344.533c-3.84-4.053-11.093-4.053-14.933,0c-2.133,1.92-3.2,4.693-3.2,7.467s1.067,5.547,3.2,7.467
			c1.92,2.133,4.693,3.2,7.467,3.2c2.773,0,5.547-1.067,7.68-3.2c1.92-1.92,2.987-4.693,2.987-7.467
			C213.333,349.227,212.267,346.453,210.133,344.533z"/>
	</g>
</g>
<g>
	<g>
		<path d="M295.467,344.533c-3.84-4.053-11.093-4.053-14.933,0c-2.133,1.92-3.2,4.693-3.2,7.467c0,2.773,1.067,5.547,3.2,7.467
			c1.92,2.133,4.693,3.2,7.467,3.2c2.773,0,5.547-1.067,7.467-3.2c2.133-1.92,3.2-4.693,3.2-7.467
			C298.667,349.227,297.6,346.453,295.467,344.533z"/>
	</g>
</g>
<g>
	<g>
		<path d="M338.133,344.533c-3.84-4.053-11.093-4.053-14.933,0c-2.133,1.92-3.2,4.693-3.2,7.467c0,2.773,1.067,5.547,3.2,7.467
			c1.92,2.133,4.693,3.2,7.467,3.2c2.773,0,5.547-1.067,7.467-3.2c2.133-1.92,3.2-4.693,3.2-7.467
			C341.333,349.227,340.267,346.453,338.133,344.533z"/>
	</g>
</g>
<g>
	<g>
		<path d="M380.8,344.533c-3.84-4.053-11.093-3.84-14.933-0.213c-1.92,1.92-3.2,4.693-3.2,7.68c0,2.773,1.067,5.547,3.2,7.467
			c1.92,2.133,4.693,3.2,7.467,3.2s5.547-1.067,7.467-3.2c2.133-1.92,3.2-4.693,3.2-7.467C384,349.013,382.72,346.24,380.8,344.533z
			"/>
	</g>
</g>
<g>
	<g>
		<path d="M416,64H74.667C33.493,64,0,97.493,0,138.667V352c0,41.173,33.493,74.667,74.667,74.667H416
			c41.173,0,74.667-33.493,74.667-74.667V138.667C490.667,97.493,457.173,64,416,64z M469.333,352
			c0,29.397-23.936,53.333-53.333,53.333H74.667c-29.397,0-53.333-23.936-53.333-53.333V138.667
			c0-29.397,23.936-53.333,53.333-53.333H416c29.397,0,53.333,23.936,53.333,53.333V352z"/>
	</g>
</g>
<g>
</g>
<g>
</g>
<g>
</g>
<g>
</g>
<g>
</g>
<g>
</g>
<g>
</g>
<g>
</g>
<g>
</g>
<g>
</g>
<g>
</g>
<g>
</g>
<g>
</g>
<g>
</g>
<g>
</g>
</svg>
