<?xml version="1.0" encoding="iso-8859-1"?>
<!-- Generator: Adobe Illustrator 19.0.0, SVG Export Plug-In . SVG Version: 6.00 Build 0)  -->
<svg version="1.1" id="Capa_1" xmlns="http://www.w3.org/2000/svg" xmlns:xlink="http://www.w3.org/1999/xlink" x="0px" y="0px"
	 viewBox="0 0 395.498 395.498" style="enable-background:new 0 0 395.498 395.498;" xml:space="preserve">
<g>
	<g>
		<path style="fill:#F9AB7A;" d="M395.498,190.435v112.327c0,17.312-14.035,31.347-31.347,31.347h-332.8
			c-17.021,0.291-31.056-13.272-31.347-30.293c-0.006-0.351-0.006-0.703,0-1.054V190.435H395.498z"/>
		<polygon style="fill:#806F5E;;" points="394.976,116.77 394.976,190.435 394.976,190.435 0.005,190.435 0.005,116.77 
			394.976,116.77 		"/>
		<path style="fill:#F9AB7A;" d="M395.498,92.737v24.033H0.005V92.737C-0.286,75.716,13.276,61.681,30.298,61.39
			c0.351-0.006,0.703-0.006,1.054,0h332.8C381.464,61.39,395.498,75.425,395.498,92.737z"/>
	</g>
	<g>
		<rect x="255.482" y="244.77" style="fill:#806F5E;" width="91.951" height="31.347"/>
		<path style="fill:#806F5E;" d="M118.601,236.933c13.272-0.176,24.173,10.44,24.35,23.711c0.176,13.272-10.44,24.173-23.711,24.35
			c-8.262,0.11-16-4.032-20.491-10.967c2.761-3.988,4.221-8.733,4.18-13.584c-0.032-4.678-1.49-9.234-4.18-13.061
			C103.234,240.834,110.663,236.924,118.601,236.933z"/>
	</g>
	<path style="fill:#806F5E;" d="M78.372,236.933c8.121-0.184,15.786,3.746,20.376,10.449c-2.536,3.873-3.813,8.435-3.657,13.061
		c-0.23,4.799,1.049,9.549,3.657,13.584c-4.589,6.703-12.254,10.633-20.376,10.449c-13.129-1.952-22.189-14.177-20.238-27.305
		C59.69,246.705,67.907,238.489,78.372,236.933z"/>
</g>
<g>
</g>
<g>
</g>
<g>
</g>
<g>
</g>
<g>
</g>
<g>
</g>
<g>
</g>
<g>
</g>
<g>
</g>
<g>
</g>
<g>
</g>
<g>
</g>
<g>
</g>
<g>
</g>
<g>
</g>
</svg>
